<svg width="25" height="25" viewBox="0 0 25 25" fill="none" xmlns="http://www.w3.org/2000/svg">
<path d="M21.3388 21.3386C16.4571 26.2204 8.54201 26.2195 3.66116 21.3386C1.31696 18.9944 0 15.815 0 12.4998C0 9.18461 1.31696 6.00518 3.66116 3.66098C8.54201 -1.21987 16.4571 -1.22078 21.3388 3.66098C26.2197 8.54183 26.2197 16.4578 21.3388 21.3386ZM16.1842 8.42035C15.9295 8.41988 15.685 8.52036 15.5042 8.69979C15.3234 8.87921 15.2211 9.12296 15.2196 9.37766L15.2015 13.8415L9.52652 8.16652C9.3462 7.98619 9.10163 7.88489 8.84661 7.88489C8.5916 7.88489 8.34703 7.98619 8.1667 8.16652C7.98638 8.34684 7.88508 8.59141 7.88508 8.84643C7.88508 9.10144 7.98638 9.34601 8.1667 9.52634L13.8426 15.2022L9.37876 15.2204C9.12366 15.2216 8.87949 15.3241 8.69996 15.5053C8.61106 15.595 8.54071 15.7014 8.49293 15.8183C8.44514 15.9352 8.42085 16.0604 8.42144 16.1867C8.42204 16.3131 8.44751 16.438 8.4964 16.5545C8.54528 16.6709 8.61663 16.7766 8.70637 16.8655C8.8876 17.0451 9.13273 17.1453 9.38782 17.1441L16.1606 17.1178C16.4142 17.1167 16.657 17.0154 16.8363 16.8361C17.0156 16.6569 17.1168 16.414 17.118 16.1604L17.1442 9.38764C17.145 9.26116 17.1208 9.13578 17.073 9.01867C17.0252 8.90157 16.9548 8.79504 16.8658 8.70518C16.7768 8.61533 16.671 8.54392 16.5543 8.49504C16.4376 8.44617 16.3125 8.42078 16.186 8.42035H16.1842Z" fill="#FFFFFC"/>
</svg>
