<svg width="25" height="25" viewBox="0 0 25 25" fill="none" xmlns="http://www.w3.org/2000/svg">
<path d="M4.29736 8.59237C4.15266 8.59243 4.01133 8.54867 3.89196 8.46687C3.7726 8.38506 3.6808 8.26904 3.62864 8.13406L2.80576 5.99249C2.78793 5.94577 2.76044 5.90334 2.72507 5.86798C2.68971 5.83262 2.64728 5.80512 2.60056 5.78729L0.458994 4.96442C0.32389 4.91236 0.207721 4.82061 0.125788 4.70124C0.0438547 4.58187 0 4.44048 0 4.29569C0 4.15091 0.0438547 4.00952 0.125788 3.89015C0.207721 3.77078 0.32389 3.67903 0.458994 3.62698L2.59952 2.8041C2.64628 2.78604 2.68871 2.75834 2.72406 2.72281C2.75942 2.68728 2.7869 2.6447 2.80472 2.59786L3.62135 0.47816C3.66733 0.353177 3.74652 0.243099 3.8504 0.159773C3.95429 0.076447 4.07893 0.0230277 4.21091 0.00526447C4.36926 -0.0140339 4.52952 0.0200532 4.66631 0.102126C4.8031 0.1842 4.90859 0.309567 4.96608 0.458369L5.78896 2.5989C5.80678 2.64574 5.83426 2.68832 5.86962 2.72385C5.90497 2.75938 5.9474 2.78708 5.99416 2.80514L8.13469 3.62802C8.26979 3.68007 8.38596 3.77182 8.46789 3.89119C8.54983 4.01056 8.59368 4.15195 8.59368 4.29674C8.59368 4.44152 8.54983 4.58291 8.46789 4.70228C8.38596 4.82165 8.26979 4.9134 8.13469 4.96546L5.99416 5.78834C5.94744 5.80617 5.90501 5.83366 5.86965 5.86902C5.83429 5.90438 5.80679 5.94681 5.78896 5.99353L4.96608 8.13406C4.91392 8.26904 4.82212 8.38506 4.70276 8.46687C4.5834 8.54867 4.44207 8.59243 4.29736 8.59237Z" fill="#FBFAFF"/>
<path d="M10.1565 25C9.90961 25.0011 9.66828 24.927 9.46467 24.7874C9.26107 24.6478 9.10487 24.4494 9.01694 24.2188L7.07119 19.1607C7.0319 19.0588 6.97177 18.9662 6.89464 18.8889C6.81751 18.8116 6.72509 18.7513 6.6233 18.7117L1.56311 16.7649C1.33272 16.6764 1.13458 16.5201 0.994819 16.3167C0.855058 16.1132 0.780244 15.8722 0.780244 15.6254C0.780244 15.3786 0.855058 15.1376 0.994819 14.9341C1.13458 14.7307 1.33272 14.5744 1.56311 14.4859L6.62121 12.5401C6.72313 12.5009 6.81572 12.4408 6.89304 12.3637C6.97035 12.2865 7.03068 12.1941 7.07015 12.0922L9.01694 7.03205C9.10548 6.80166 9.26177 6.60352 9.4652 6.46376C9.66864 6.324 9.90965 6.24919 10.1565 6.24919C10.4033 6.24919 10.6443 6.324 10.8477 6.46376C11.0512 6.60352 11.2075 6.80166 11.296 7.03205L13.2417 12.0902C13.2809 12.1921 13.341 12.2847 13.4182 12.362C13.4953 12.4394 13.5878 12.4997 13.6896 12.5391L18.7196 14.4744C18.9594 14.5635 19.166 14.7242 19.3112 14.9348C19.4564 15.1454 19.5331 15.3957 19.531 15.6515C19.5274 15.894 19.4509 16.1298 19.3116 16.3283C19.1724 16.5269 18.9766 16.679 18.7498 16.7649L13.6917 18.7096C13.5897 18.7491 13.4971 18.8093 13.4198 18.8867C13.3425 18.964 13.2822 19.0566 13.2428 19.1586L11.296 24.2188C11.2081 24.4494 11.0519 24.6478 10.8483 24.7874C10.6447 24.927 10.4033 25.0011 10.1565 25Z" fill="#FBFAFF"/>
<path d="M19.0889 12.3615C19.2191 12.4508 19.3732 12.4985 19.531 12.4984V12.4974C19.689 12.4974 19.8432 12.4495 19.9734 12.36C20.1035 12.2706 20.2035 12.1438 20.2602 11.9964L21.3747 9.09754C21.3942 9.04645 21.4242 9.00002 21.4628 8.96127C21.5014 8.92251 21.5477 8.89229 21.5987 8.87255L24.4985 7.75802C24.6459 7.70133 24.7726 7.60131 24.862 7.47115C24.9514 7.34098 24.9993 7.18679 24.9993 7.02888C24.9993 6.87098 24.9514 6.71678 24.862 6.58662C24.7726 6.45646 24.6459 6.35644 24.4985 6.29975L21.5987 5.18522C21.5474 5.16566 21.5009 5.13551 21.4622 5.09674C21.4234 5.05797 21.3932 5.01145 21.3737 4.96023L20.2591 2.0614C20.1968 1.8989 20.082 1.76187 19.9329 1.67205C19.7838 1.58223 19.6091 1.54476 19.4363 1.56559C19.2924 1.58545 19.1566 1.644 19.0434 1.73499C18.9303 1.82598 18.8439 1.946 18.7936 2.08223L17.6863 4.96023C17.6667 5.01142 17.6366 5.05791 17.5978 5.09667C17.559 5.13543 17.5125 5.1656 17.4613 5.18522L14.5625 6.30079C14.4151 6.35748 14.2884 6.4575 14.199 6.58766C14.1096 6.71783 14.0618 6.87202 14.0618 7.02992C14.0618 7.18783 14.1096 7.34202 14.199 7.47219C14.2884 7.60235 14.4151 7.70237 14.5625 7.75906L17.4613 8.87463C17.5125 8.89408 17.5589 8.92407 17.5977 8.96265C17.6365 9.00124 17.6667 9.04755 17.6863 9.09858L18.8019 11.9985C18.8587 12.1457 18.9588 12.2723 19.0889 12.3615Z" fill="#FBFAFF"/>
</svg>
