<svg width="25" height="25" viewBox="0 0 25 25" fill="none" xmlns="http://www.w3.org/2000/svg">
<path d="M3.74963 12.4997H2.49963V22.4997C2.49963 23.1628 2.76303 23.7986 3.23187 24.2675C3.70071 24.7363 4.33659 24.9997 4.99963 24.9997H11.2496V12.4997H3.74963ZM19.9996 12.4997H13.7496V24.9997H19.9996C20.6627 24.9997 21.2986 24.7363 21.7674 24.2675C22.2362 23.7986 22.4996 23.1628 22.4996 22.4997V12.4997H19.9996ZM20.9884 6.24971C21.1721 5.64221 21.2596 5.00971 21.2496 4.37471C21.2496 1.96221 19.2871 -0.000289917 16.8746 -0.000289917C14.8471 -0.000289917 13.4934 1.85221 12.6196 3.85596C11.7584 1.96221 10.3359 -0.000289917 8.12463 -0.000289917C5.71213 -0.000289917 3.74963 1.96221 3.74963 4.37471C3.74963 5.11971 3.84838 5.73596 4.01088 6.24971H-0.000366211V11.2497H11.2496V8.74971H13.7496V11.2497H24.9996V6.24971H20.9884ZM6.24963 4.37471C6.24963 3.34096 7.09088 2.49971 8.12463 2.49971C9.23463 2.49971 10.2671 4.40596 10.8721 6.24971H7.49963C7.03213 6.24971 6.24963 6.24971 6.24963 4.37471ZM16.8746 2.49971C17.9084 2.49971 18.7496 3.34096 18.7496 4.37471C18.7496 6.24971 17.9671 6.24971 17.4996 6.24971H14.4034C15.0409 4.27971 15.9671 2.49971 16.8746 2.49971Z" fill="#FBFAFF"/>
</svg>
