<svg width="25" height="25" viewBox="0 0 25 25" fill="none" xmlns="http://www.w3.org/2000/svg">
<path d="M10.25 14.0008H8.75003V15.5008H10.25V14.0008Z" fill="#0D0D14"/>
<path d="M13.25 8.00001H11.75V9.50001H13.25V8.00001Z" fill="#0D0D14"/>
<path d="M16.25 8.00001H14.75V9.50001H16.25V8.00001Z" fill="#0D0D14"/>
<path d="M16.25 11.0233H14.75V12.5H16.25V11.0233Z" fill="#0D0D14"/>
<path d="M16.25 14H14.75V15.5H16.25V14Z" fill="#0D0D14"/>
<path fill-rule="evenodd" clip-rule="evenodd" d="M10.25 5H17.75C18.5772 5 19.25 5.67275 19.25 6.5V19.25C19.25 19.4489 19.171 19.6397 19.0303 19.7803C18.8897 19.921 18.6989 20 18.5 20H6.5C6.30109 20 6.11032 19.921 5.96967 19.7803C5.82902 19.6397 5.75 19.4489 5.75 19.25V12.5C5.75 11.6728 6.42275 11 7.25 11H8.75V6.5C8.75 5.67275 9.42275 5 10.25 5ZM11.75 12.5H7.25V18.5H11.75V12.5ZM13.25 18.5H17.75V6.5H10.25V11H11.75C12.5772 11 13.25 11.6728 13.25 12.5V18.5Z" fill="#0D0D14"/>
</svg>
