<svg width="25" height="25" viewBox="0 0 25 25" fill="none" xmlns="http://www.w3.org/2000/svg">
<path d="M16.6112 13.1236C16.4632 12.9756 16.2625 12.8925 16.0533 12.8925C15.844 12.8925 15.6433 12.9756 15.4953 13.1236L14.2381 14.3816C13.6548 14.2079 12.5665 13.8133 11.8767 13.1236C11.187 12.4338 10.7924 11.3455 10.6187 10.7622L11.8767 9.50421C11.9502 9.43104 12.0085 9.34408 12.0482 9.24833C12.088 9.15258 12.1085 9.04992 12.1085 8.94624C12.1085 8.84256 12.088 8.7399 12.0482 8.64415C12.0085 8.5484 11.9502 8.46144 11.8767 8.38826L8.71987 5.2314C8.64664 5.15804 8.55966 5.09985 8.46392 5.06014C8.36818 5.02044 8.26554 5 8.16189 5C8.05824 5 7.95561 5.02044 7.85987 5.06014C7.76412 5.09985 7.67715 5.15804 7.60392 5.2314L5.46277 7.37175C5.16287 7.67166 4.99398 8.08363 5.00029 8.50428C5.01844 9.62812 5.31598 13.5316 8.39234 16.6079C11.4687 19.6843 15.3722 19.9811 16.4976 20H16.5189C16.9356 20 17.3294 19.8358 17.6278 19.5375L19.7681 17.3972C19.8416 17.324 19.8998 17.237 19.9396 17.1413C19.9794 17.0455 19.9998 16.9429 19.9998 16.8392C19.9998 16.7355 19.9794 16.6328 19.9396 16.5371C19.8998 16.4413 19.8416 16.3544 19.7681 16.2812L16.6112 13.1236ZM16.511 18.4208C15.5261 18.405 12.1561 18.1398 9.5083 15.4912C6.85179 12.8347 6.59451 9.45371 6.57873 8.4877L8.1611 6.90533L10.202 8.94624L9.18156 9.9667C9.0888 10.0594 9.02059 10.1737 8.98311 10.2994C8.94563 10.4251 8.94006 10.5581 8.96689 10.6865C8.98583 10.7772 9.4491 12.9294 10.7592 14.2395C12.0693 15.5496 14.2215 16.0129 14.3123 16.0318C14.4405 16.0596 14.5736 16.0546 14.6994 16.0174C14.8252 15.9801 14.9396 15.9118 15.032 15.8187L16.0533 14.7967L18.0942 16.8384L16.511 18.4208Z" fill="#0D0D14"/>
</svg>
