<svg width="26" height="25" viewBox="0 0 26 25" fill="none" xmlns="http://www.w3.org/2000/svg">
<path d="M12.9996 12.4999C12.1907 12.4999 11.3804 12.3563 10.7496 12.0691L1.85604 8.01268C1.44835 7.82807 0.499634 7.28704 0.499634 6.26397C0.499634 5.24217 1.44835 4.70243 1.85604 4.51396L10.8278 0.424222C12.0637 -0.141163 13.9304 -0.141163 15.1663 0.424222L24.1432 4.51396C24.5509 4.69986 25.4996 5.24089 25.4996 6.26397C25.4996 7.28704 24.5509 7.82679 24.1432 8.01397L15.2484 12.0691C14.6189 12.3563 13.8086 12.4999 12.9996 12.4999Z" fill="#FBFAFF"/>
<path d="M24.1394 10.746L23.2317 10.3357L15.2535 13.987C14.6227 14.2755 13.8112 14.4191 13.0035 14.4191C12.1958 14.4191 11.3855 14.2755 10.7548 13.987L2.77015 10.3357L1.85604 10.7473C1.44835 10.9332 0.499634 11.478 0.499634 12.4998C0.499634 13.5216 1.44835 14.0678 1.85604 14.2524L10.7496 18.3165C11.3778 18.6063 12.1881 18.7498 12.9996 18.7498C13.8112 18.7498 14.6189 18.605 15.2496 18.3178L24.1355 14.2537C24.5458 14.0691 25.4996 13.5268 25.4996 12.4998C25.4996 11.4729 24.5509 10.9332 24.1394 10.746Z" fill="#FBFAFF"/>
<path d="M23.2317 16.5857L24.1394 16.9947C24.5509 17.1832 25.4996 17.7242 25.4996 18.7498C25.4996 19.7755 24.5458 20.3165 24.1355 20.5024L15.2458 24.5639C14.615 24.8511 13.8073 24.9998 12.9996 24.9998C12.1907 24.9998 11.3778 24.8511 10.7496 24.5639L1.85604 20.5011C1.44835 20.3165 0.499634 19.7716 0.499634 18.7498C0.499634 17.7281 1.44835 17.1832 1.85604 16.9973L2.77015 16.587L5.10092 17.6486L10.7548 20.2332C11.3855 20.5204 12.1958 20.6639 13.0035 20.6639C13.8112 20.6639 14.6227 20.5204 15.2535 20.2332L23.2317 16.5857Z" fill="#FBFAFF"/>
</svg>
