<svg width="25" height="25" viewBox="0 0 25 25" fill="none" xmlns="http://www.w3.org/2000/svg">
<rect width="25" height="25" rx="5" fill="#0D0D14"/>
<path d="M19.4112 7.72222C18.5138 7.52488 17.7019 7.04832 17.0922 6.36093C16.4824 5.67354 16.1061 4.81066 16.0172 3.89611V3.5H12.9113V15.8066C12.9119 16.3526 12.7407 16.885 12.4219 17.3284C12.1032 17.7718 11.653 18.1036 11.1351 18.2769C10.6173 18.4501 10.0581 18.4561 9.53665 18.2939C9.01523 18.1316 8.55808 17.8095 8.22994 17.373C7.93596 16.9867 7.75594 16.5258 7.71025 16.0424C7.66455 15.5591 7.755 15.0726 7.97137 14.638C8.18773 14.2034 8.52138 13.838 8.93458 13.5831C9.34779 13.3283 9.82406 13.1941 10.3095 13.1958C10.5778 13.194 10.8452 13.2336 11.1018 13.3128V10.1619C9.92632 10.0057 8.73142 10.2201 7.68358 10.7752C6.63574 11.3303 5.78715 12.1984 5.25606 13.2586C4.72497 14.3188 4.53783 15.5183 4.72072 16.6899C4.90361 17.8615 5.44742 18.9468 6.27637 19.7947C7.06994 20.6015 8.08544 21.1542 9.19384 21.3826C10.3022 21.6109 11.4535 21.5047 12.5014 21.0772C13.5492 20.6498 14.4464 19.9205 15.0788 18.982C15.7112 18.0435 16.0504 16.9382 16.0532 15.8066V9.50474C17.3059 10.3995 18.808 10.8782 20.3474 10.8731V7.81225C20.045 7.81349 19.7433 7.78332 19.4472 7.72222H19.4112Z" fill="#FBFAFF"/>
</svg>
